<?xml version="1.0" encoding="utf-8"?>
<!-- Generator: Adobe Illustrator 16.0.4, SVG Export Plug-In . SVG Version: 6.00 Build 0)  -->
<!DOCTYPE svg PUBLIC "-//W3C//DTD SVG 1.1//EN" "http://www.w3.org/Graphics/SVG/1.1/DTD/svg11.dtd">
<svg version="1.1" id="Layer_1" xmlns="http://www.w3.org/2000/svg" xmlns:xlink="http://www.w3.org/1999/xlink" x="0px" y="0px"
	 width="454.611px" height="69.892px" viewBox="0 0 454.611 69.892" enable-background="new 0 0 454.611 69.892"
	 xml:space="preserve">
<g>
	<g>
		<circle fill="#17477D" cx="33.974" cy="33.976" r="33.974"/>
		<g>
			<circle fill="#E63092" cx="18.918" cy="19.113" r="5.418"/>
			<circle fill="#E63092" cx="49.029" cy="19.113" r="5.418"/>
			<circle fill="#EEE824" cx="33.974" cy="19.113" r="5.419"/>
			<circle fill="#EEE824" cx="18.918" cy="33.976" r="5.418"/>
			<circle fill="#EEE824" cx="49.029" cy="33.976" r="5.418"/>
			<circle fill="#E63092" cx="33.974" cy="33.976" r="5.419"/>
			<circle fill="#E63092" cx="18.918" cy="48.838" r="5.418"/>
			<circle fill="#E63092" cx="49.029" cy="48.838" r="5.418"/>
			<circle fill="#EEE824" cx="33.974" cy="48.838" r="5.419"/>
		</g>
		
			<linearGradient id="SVGID_1_" gradientUnits="userSpaceOnUse" x1="10.6416" y1="341.6616" x2="34.8396" y2="341.4419" gradientTransform="matrix(0.6806 0.7327 -0.8285 0.7695 288.1924 -259.4229)">
			<stop  offset="0" style="stop-color:#FFFFFF;stop-opacity:0.38"/>
			<stop  offset="1" style="stop-color:#FFFFFF;stop-opacity:0"/>
		</linearGradient>
		<path fill="url(#SVGID_1_)" d="M43.662,44.633c-10.186,9.461-25.521,9.505-34.258,0.101c-8.736-9.405-7.561-24.699,2.623-34.159
			c10.186-9.46,25.523-9.505,34.26-0.1C55.023,19.879,53.848,35.172,43.662,44.633z"/>
		
			<linearGradient id="SVGID_2_" gradientUnits="userSpaceOnUse" x1="206.1689" y1="-85.3486" x2="206.0903" y2="-105.7937" gradientTransform="matrix(0.6436 -0.5291 0.7296 0.8874 -15.2827 241.5571)">
			<stop  offset="0" style="stop-color:#FFFFFF;stop-opacity:0.38"/>
			<stop  offset="0.5394" style="stop-color:#FFFFFF;stop-opacity:0"/>
		</linearGradient>
		<path fill="url(#SVGID_2_)" d="M61.598,34.662c4.893,5.952,2.273,16.192-5.85,22.871c-8.125,6.681-18.678,7.269-23.572,1.316
			c-4.895-5.953-2.275-16.192,5.85-22.872C46.148,29.298,56.703,28.709,61.598,34.662z"/>
	</g>
	<g>
		<path fill="#17477D" d="M134.63,59.577h-11.052l-5.272-27.105l-9.888,23.308h-4.983l-8.986-22.368l-5.355,26.165H78.658
			l10.789-48.6h4.208l12.909,28.698l12.814-28.698h4.461L134.63,59.577z"/>
		<path fill="#17477D" d="M173.516,28.319l-14.859,30.396c-1.962,4.032-3.549,6.829-4.762,8.391s-2.495,2.491-3.844,2.787h-10.967
			c1.729-0.424,3.67-2.107,5.822-5.051s3.607-5.263,4.366-6.958l-14.736-29.564l8.751-4.148l10.767,24.155l11.221-24.155
			L173.516,28.319z"/>
		<path fill="#6D82AE" d="M229.109,59.577h-11.052l-5.272-27.105l-9.888,23.308h-4.983l-8.986-22.368l-5.355,26.165h-10.436
			l10.789-48.6h4.208l12.909,28.698l12.814-28.698h4.461L229.109,59.577z"/>
		<path fill="#6D82AE" d="M268.533,54.356l-7.625,6.233c-1.16-0.38-2.173-0.981-3.038-1.804s-1.435-1.761-1.708-2.816l-5.948,3.385
			c-0.232,0.127-0.628,0.258-1.187,0.396c-0.559,0.137-1.028,0.206-1.408,0.206c-4.578,0-8.358-1.571-11.343-4.715
			c-2.985-3.143-4.477-7.509-4.477-13.099c0-5.315,1.55-9.698,4.651-13.146c3.101-3.449,7.056-5.173,11.865-5.173
			c1.919,0,3.712,0.38,5.379,1.139c1.666,0.759,2.763,1.435,3.291,2.025l5.505-1.993l1.93,0.569v21.706
			c0,1.898,0.332,3.407,0.997,4.524C266.081,52.912,267.12,53.766,268.533,54.356z M255.149,49.61V34.771
			c-0.633-0.789-1.461-1.466-2.484-2.032c-1.023-0.565-2.273-0.848-3.75-0.848c-2.131,0-3.897,0.777-5.3,2.33
			c-1.403,1.553-2.104,4.125-2.104,7.717c0,2.853,0.653,5.14,1.961,6.861c1.308,1.722,3.143,2.583,5.506,2.583
			c1.35,0,2.615-0.211,3.797-0.633C253.957,50.328,254.748,49.948,255.149,49.61z"/>
		<path fill="#6D82AE" d="M289.416,53.629l-7.024,6.613c-2.911-1.2-5.094-2.952-6.55-5.256s-2.183-5.057-2.183-8.256V31.892h-3.228
			v-6.328h3.228V14.331l9.682-0.696v11.96h5.062v6.265h-5.062v12.115c0,2.418,0.548,4.427,1.645,6.025
			C286.083,51.599,287.56,52.809,289.416,53.629z"/>
		<path fill="#6D82AE" d="M325.36,59.577h-9.682V38.22c0-1.244-0.443-2.346-1.329-3.307c-0.886-0.959-2.246-1.439-4.082-1.439
			c-1.603,0-3.001,0.332-4.192,0.997c-1.192,0.665-2.199,1.376-3.021,2.136v22.971h-9.682v-48.6h9.682v17.212l4.024-2.31
			c1.288-0.738,2.54-1.25,3.754-1.535c1.215-0.285,2.445-0.427,3.692-0.427c3.358,0,6.004,1.04,7.937,3.117
			c1.933,2.078,2.9,4.815,2.9,8.211V59.577z"/>
		<path fill="#6D82AE" d="M358.677,47.902c0,3.713-1.329,6.697-3.986,8.954c-2.658,2.257-5.949,3.386-9.872,3.386
			c-1.835,0-4.034-0.185-6.597-0.554c-2.563-0.369-4.836-1.081-6.818-2.136v-8.543c1.561,0.886,3.333,1.651,5.315,2.294
			c1.982,0.644,4.282,0.965,6.898,0.965c1.877,0,3.39-0.274,4.54-0.823c1.149-0.548,1.725-1.54,1.725-2.974
			c0-0.928-0.485-1.682-1.456-2.262c-0.97-0.58-2.658-0.976-5.062-1.187c-4.303-0.358-7.32-1.402-9.049-3.132
			c-1.729-1.729-2.594-4.05-2.594-6.961c0-3.291,1.323-6.001,3.971-8.132c2.647-2.13,5.901-3.196,9.761-3.196
			c1.688,0,3.491,0.148,5.411,0.443c1.919,0.295,3.554,0.664,4.904,1.107v8.638c-1.688-0.759-3.37-1.318-5.047-1.677
			c-1.677-0.358-3.486-0.538-5.426-0.538c-1.561,0-2.779,0.269-3.654,0.807c-0.876,0.538-1.313,1.166-1.313,1.883
			c0,1.287,0.622,2.136,1.867,2.547c1.244,0.412,2.552,0.66,3.923,0.744c4.176,0.274,7.314,1.308,9.413,3.101
			C357.628,42.449,358.677,44.864,358.677,47.902z"/>
		<path fill="#17477D" d="M367.916,59.577h-5.015v-5.142h5.015V59.577z"/>
		<path fill="#17477D" d="M385.667,58.185c-0.348,0.348-0.981,0.723-1.898,1.123c-0.918,0.401-2.073,0.601-3.465,0.601
			c-2.626,0-4.749-0.748-6.368-2.244c-1.619-1.497-2.428-3.768-2.428-6.813c0-2.434,0.833-4.586,2.5-6.457
			c1.666-1.87,3.792-2.806,6.375-2.806c1.065,0,2.03,0.09,2.895,0.269c0.865,0.18,1.524,0.375,1.978,0.585v5.046
			c-0.823-0.569-1.574-0.959-2.254-1.17s-1.442-0.316-2.286-0.316c-1.318,0-2.347,0.413-3.085,1.24s-1.107,2.072-1.107,3.735
			c0,1.58,0.438,2.759,1.313,3.538c0.875,0.779,1.909,1.169,3.101,1.169c1.055,0,1.946-0.161,2.674-0.483
			c0.728-0.321,1.413-0.741,2.057-1.257V58.185z"/>
		<path fill="#17477D" d="M405.394,50.75c0,2.795-0.801,5.021-2.402,6.676c-1.602,1.656-3.799,2.483-6.591,2.483
			c-3.003,0-5.253-0.833-6.75-2.5c-1.496-1.666-2.244-3.886-2.244-6.66c0-2.521,0.806-4.677,2.418-6.471
			c1.612-1.793,3.804-2.689,6.576-2.689c2.782,0,4.976,0.828,6.583,2.484C404.591,45.729,405.394,47.955,405.394,50.75z
			 M400.49,50.75c0-1.382-0.361-2.61-1.083-3.686c-0.723-1.076-1.722-1.614-2.998-1.614c-1.466,0-2.515,0.49-3.148,1.471
			s-0.949,2.257-0.949,3.829c0,1.466,0.379,2.716,1.139,3.75c0.76,1.034,1.777,1.55,3.054,1.55c1.424,0,2.444-0.419,3.061-1.258
			S400.49,52.606,400.49,50.75z"/>
		<path fill="#17477D" d="M414.016,59.577h-5.015v-5.142h5.015V59.577z"/>
		<path fill="#17477D" d="M434.424,59.577h-4.841v-1.93l-2.009,1.139c-0.56,0.316-1.145,0.562-1.756,0.736
			c-0.612,0.174-1.271,0.261-1.978,0.261c-1.677,0-2.998-0.519-3.963-1.558c-0.965-1.039-1.448-2.413-1.448-4.121V42.57h4.841
			v10.441c0,0.623,0.221,1.171,0.665,1.646c0.443,0.475,1.123,0.712,2.041,0.712c0.854,0,1.587-0.182,2.199-0.546
			c0.611-0.364,1.081-0.699,1.408-1.005V42.57h4.841V59.577z"/>
		<path fill="#17477D" d="M454.611,59.577h-5.797l-4.778-7.477l-0.99,0.917v6.56h-4.841v-24.3h4.841v13.099l6.514-6.534l3.216,2.151
			l-5.185,4.81L454.611,59.577z"/>
	</g>
</g>
<g>
</g>
<g>
</g>
<g>
</g>
<g>
</g>
<g>
</g>
<g>
</g>
<g>
</g>
<g>
</g>
<g>
</g>
<g>
</g>
<g>
</g>
<g>
</g>
<g>
</g>
<g>
</g>
<g>
</g>
</svg>
